<?xml version="1.0" encoding="UTF-8" standalone="no"?>
<!-- Created with Inkscape (http://www.inkscape.org/) -->

<svg
   xmlns:dc="http://purl.org/dc/elements/1.1/"
   xmlns:cc="http://creativecommons.org/ns#"
   xmlns:rdf="http://www.w3.org/1999/02/22-rdf-syntax-ns#"
   xmlns:svg="http://www.w3.org/2000/svg"
   xmlns="http://www.w3.org/2000/svg"
   xmlns:sodipodi="http://sodipodi.sourceforge.net/DTD/sodipodi-0.dtd"
   xmlns:inkscape="http://www.inkscape.org/namespaces/inkscape"
   width="57.154411mm"
   height="57.13839mm"
   viewBox="0 0 57.154411 57.13839"
   version="1.1"
   id="svg8"
   inkscape:version="0.92.2 (5c3e80d, 2017-08-06)"
   sodipodi:docname="logo2.svg"
   inkscape:export-filename="/Users/grahamcrate/Workspace/Since My Last/www/img/logo.png"
   inkscape:export-xdpi="34.32272"
   inkscape:export-ydpi="34.32272">
  <defs
     id="defs2" />
  <sodipodi:namedview
     id="base"
     pagecolor="#ffffff"
     bordercolor="#666666"
     borderopacity="1.0"
     inkscape:pageopacity="0.0"
     inkscape:pageshadow="2"
     inkscape:zoom="1.3977742"
     inkscape:cx="60.595718"
     inkscape:cy="98.349058"
     inkscape:document-units="mm"
     inkscape:current-layer="layer1"
     showgrid="false"
     inkscape:window-width="1438"
     inkscape:window-height="811"
     inkscape:window-x="0"
     inkscape:window-y="23"
     inkscape:window-maximized="0"
     fit-margin-top="0"
     fit-margin-left="0"
     fit-margin-right="0"
     fit-margin-bottom="0" />
  <metadata
     id="metadata5">
    <rdf:RDF>
      <cc:Work
         rdf:about="">
        <dc:format>image/svg+xml</dc:format>
        <dc:type
           rdf:resource="http://purl.org/dc/dcmitype/StillImage" />
        <dc:title></dc:title>
      </cc:Work>
    </rdf:RDF>
  </metadata>
  <g
     inkscape:label="Layer 1"
     inkscape:groupmode="layer"
     id="layer1"
     transform="translate(-150.12436,-115.26512)">
    <path
       style="opacity:1;fill:#ea4e50;fill-opacity:1;fill-rule:evenodd;stroke:none;stroke-width:0.708974;stroke-linecap:round;stroke-linejoin:round;stroke-miterlimit:4;stroke-dasharray:none;stroke-dashoffset:0;stroke-opacity:1"
       id="path832"
       sodipodi:type="arc"
       sodipodi:cx="154.69443"
       sodipodi:cy="-143.60471"
       sodipodi:rx="4.570065"
       sodipodi:ry="4.0127716"
       sodipodi:start="3.1286074"
       sodipodi:end="3.112096"
       d="m 150.12475,-143.5526 a 4.570065,4.0127716 0 0 1 4.49147,-4.06429 4.570065,4.0127716 0 0 1 4.64724,3.92696 4.570065,4.0127716 0 0 1 -4.45311,4.0967 4.570065,4.0127716 0 0 1 -4.684,-3.89313"
       sodipodi:open="true"
       transform="scale(1,-1)" />
    <path
       style="opacity:1;fill:#ea4e50;fill-opacity:1;fill-rule:evenodd;stroke:none;stroke-width:0.708974;stroke-linecap:round;stroke-linejoin:round;stroke-miterlimit:4;stroke-dasharray:none;stroke-dashoffset:0;stroke-opacity:1"
       id="path832-8"
       sodipodi:type="arc"
       sodipodi:cx="202.70871"
       sodipodi:cy="-143.35771"
       sodipodi:rx="4.570065"
       sodipodi:ry="4.0127716"
       sodipodi:start="3.1286074"
       sodipodi:end="3.112096"
       d="m 198.13903,-143.30561 a 4.570065,4.0127716 0 0 1 4.49148,-4.06429 4.570065,4.0127716 0 0 1 4.64723,3.92696 4.570065,4.0127716 0 0 1 -4.45311,4.09671 4.570065,4.0127716 0 0 1 -4.684,-3.89314"
       sodipodi:open="true"
       transform="scale(1,-1)" />
    <path
       style="opacity:1;fill:#ea4e50;fill-opacity:1;fill-rule:evenodd;stroke:none;stroke-width:0.708974;stroke-linecap:round;stroke-linejoin:round;stroke-miterlimit:4;stroke-dasharray:none;stroke-dashoffset:0;stroke-opacity:1"
       id="path832-7"
       sodipodi:type="arc"
       sodipodi:cx="-162.29051"
       sodipodi:cy="-183.14902"
       sodipodi:rx="4.570065"
       sodipodi:ry="4.0127716"
       sodipodi:start="3.1286074"
       sodipodi:end="3.112096"
       d="m -166.86019,-183.09691 a 4.570065,4.0127716 0 0 1 4.49147,-4.06429 4.570065,4.0127716 0 0 1 4.64724,3.92695 4.570065,4.0127716 0 0 1 -4.45311,4.09671 4.570065,4.0127716 0 0 1 -4.684,-3.89313"
       sodipodi:open="true"
       transform="matrix(0.03068452,-0.99952912,-0.99952912,-0.03068452,0,0)" />
    <path
       style="opacity:1;fill:#ea4e50;fill-opacity:1;fill-rule:evenodd;stroke:none;stroke-width:0.708974;stroke-linecap:round;stroke-linejoin:round;stroke-miterlimit:4;stroke-dasharray:none;stroke-dashoffset:0;stroke-opacity:1"
       id="path832-8-9"
       sodipodi:type="arc"
       sodipodi:cx="-114.27624"
       sodipodi:cy="-182.90202"
       sodipodi:rx="4.570065"
       sodipodi:ry="4.0127716"
       sodipodi:start="3.1286074"
       sodipodi:end="3.112096"
       d="m -118.84592,-182.84992 a 4.570065,4.0127716 0 0 1 4.49148,-4.06429 4.570065,4.0127716 0 0 1 4.64724,3.92696 4.570065,4.0127716 0 0 1 -4.45311,4.09671 4.570065,4.0127716 0 0 1 -4.684,-3.89314"
       sodipodi:open="true"
       transform="matrix(0.03068452,-0.99952912,-0.99952912,-0.03068452,0,0)" />
    <rect
       style="opacity:1;fill:#ea4e50;fill-opacity:1;fill-rule:evenodd;stroke:none;stroke-width:1.58059061;stroke-linecap:round;stroke-linejoin:round;stroke-miterlimit:4;stroke-dasharray:none;stroke-dashoffset:0;stroke-opacity:1"
       id="rect876"
       width="5.2005229"
       height="11.872486"
       x="176.40514"
       y="-137.93437"
       transform="scale(1,-1)" />
    <rect
       style="opacity:1;fill:#ea4e50;fill-opacity:1;fill-rule:evenodd;stroke:none;stroke-width:1.58208442;stroke-linecap:round;stroke-linejoin:round;stroke-miterlimit:4;stroke-dasharray:none;stroke-dashoffset:0;stroke-opacity:1"
       id="rect876-8"
       width="5.2088861"
       height="11.875842"
       x="-145.87193"
       y="-196.67171"
       transform="matrix(0.00245968,-0.99999697,-0.99999736,-0.00229669,0,0)" />
    <path
       style="opacity:1;fill:#ea4e50;fill-opacity:1;fill-rule:evenodd;stroke:none;stroke-width:0.73956591;stroke-linecap:round;stroke-linejoin:round;stroke-miterlimit:4;stroke-dasharray:none;stroke-dashoffset:0;stroke-opacity:1"
       id="path893"
       sodipodi:type="arc"
       sodipodi:cx="178.8434"
       sodipodi:cy="143.31049"
       sodipodi:rx="3.9562252"
       sodipodi:ry="3.8323202"
       sodipodi:start="3.1286074"
       sodipodi:end="3.1120966"
       sodipodi:open="true"
       d="m 174.88751,143.36025 a 3.9562252,3.8323202 0 0 1 3.88819,-3.88152 3.9562252,3.8323202 0 0 1 4.02303,3.75036 3.9562252,3.8323202 0 0 1 -3.85498,3.91248 3.9562252,3.8323202 0 0 1 -4.05486,-3.71806" />
    <path
       style="opacity:1;fill:#ea4e50;fill-opacity:1;fill-rule:evenodd;stroke:none;stroke-width:0.61614639;stroke-linecap:round;stroke-linejoin:round;stroke-miterlimit:4;stroke-dasharray:none;stroke-dashoffset:0;stroke-opacity:1"
       id="path895"
       sodipodi:type="arc"
       sodipodi:cx="200.55173"
       sodipodi:cy="-156.54753"
       sodipodi:rx="2.8393354"
       sodipodi:ry="2.7446909"
       sodipodi:start="3.1286074"
       sodipodi:end="3.1120966"
       sodipodi:open="true"
       d="m 197.71263,-156.51189 a 2.8393354,2.7446909 0 0 1 2.79051,-2.77993 2.8393354,2.7446909 0 0 1 2.88728,2.68599 2.8393354,2.7446909 0 0 1 -2.76667,2.80211 2.8393354,2.7446909 0 0 1 -2.91012,-2.66287"
       transform="scale(1,-1)" />
    <path
       style="opacity:1;fill:#ea4e50;fill-opacity:1;fill-rule:evenodd;stroke:none;stroke-width:0.61614639;stroke-linecap:round;stroke-linejoin:round;stroke-miterlimit:4;stroke-dasharray:none;stroke-dashoffset:0;stroke-opacity:1"
       id="path895-5"
       sodipodi:type="arc"
       sodipodi:cx="191.47263"
       sodipodi:cy="-164.93982"
       sodipodi:rx="2.8393357"
       sodipodi:ry="2.7446909"
       sodipodi:start="3.1286074"
       sodipodi:end="3.1120966"
       sodipodi:open="true"
       d="m 188.63353,-164.90418 a 2.8393357,2.7446909 0 0 1 2.79051,-2.77993 2.8393357,2.7446909 0 0 1 2.88728,2.686 2.8393357,2.7446909 0 0 1 -2.76667,2.8021 2.8393357,2.7446909 0 0 1 -2.91012,-2.66286"
       transform="scale(1,-1)" />
    <path
       style="opacity:1;fill:#ea4e50;fill-opacity:1;fill-rule:evenodd;stroke:none;stroke-width:0.61614639;stroke-linecap:round;stroke-linejoin:round;stroke-miterlimit:4;stroke-dasharray:none;stroke-dashoffset:0;stroke-opacity:1"
       id="path895-54"
       sodipodi:type="arc"
       sodipodi:cx="200.93031"
       sodipodi:cy="-130.99352"
       sodipodi:rx="2.8393357"
       sodipodi:ry="2.7446909"
       sodipodi:start="3.1286074"
       sodipodi:end="3.1120966"
       sodipodi:open="true"
       d="m 198.09122,-130.95788 a 2.8393357,2.7446909 0 0 1 2.79051,-2.77992 2.8393357,2.7446909 0 0 1 2.88728,2.68599 2.8393357,2.7446909 0 0 1 -2.76668,2.8021 2.8393357,2.7446909 0 0 1 -2.91012,-2.66286"
       transform="scale(1,-1)" />
    <path
       style="opacity:1;fill:#ea4e50;fill-opacity:1;fill-rule:evenodd;stroke:none;stroke-width:0.61614639;stroke-linecap:round;stroke-linejoin:round;stroke-miterlimit:4;stroke-dasharray:none;stroke-dashoffset:0;stroke-opacity:1"
       id="path895-1"
       sodipodi:type="arc"
       sodipodi:cx="191.74979"
       sodipodi:cy="-122.00229"
       sodipodi:rx="2.8393357"
       sodipodi:ry="2.7446909"
       sodipodi:start="3.1286074"
       sodipodi:end="3.1120966"
       sodipodi:open="true"
       d="m 188.91069,-121.96665 a 2.8393357,2.7446909 0 0 1 2.79051,-2.77993 2.8393357,2.7446909 0 0 1 2.88728,2.686 2.8393357,2.7446909 0 0 1 -2.76667,2.8021 2.8393357,2.7446909 0 0 1 -2.91012,-2.66286"
       transform="scale(1,-1)" />
    <path
       style="opacity:1;fill:#ea4e50;fill-opacity:1;fill-rule:evenodd;stroke:none;stroke-width:0.61614639;stroke-linecap:round;stroke-linejoin:round;stroke-miterlimit:4;stroke-dasharray:none;stroke-dashoffset:0;stroke-opacity:1"
       id="path895-8"
       sodipodi:type="arc"
       sodipodi:cx="166.57434"
       sodipodi:cy="-121.62372"
       sodipodi:rx="2.8393357"
       sodipodi:ry="2.7446909"
       sodipodi:start="3.1286074"
       sodipodi:end="3.1120966"
       sodipodi:open="true"
       d="m 163.73524,-121.58808 a 2.8393357,2.7446909 0 0 1 2.79051,-2.77993 2.8393357,2.7446909 0 0 1 2.88729,2.686 2.8393357,2.7446909 0 0 1 -2.76668,2.8021 2.8393357,2.7446909 0 0 1 -2.91012,-2.66286"
       transform="scale(1,-1)" />
    <path
       style="opacity:1;fill:#ea4e50;fill-opacity:1;fill-rule:evenodd;stroke:none;stroke-width:0.61614639;stroke-linecap:round;stroke-linejoin:round;stroke-miterlimit:4;stroke-dasharray:none;stroke-dashoffset:0;stroke-opacity:1"
       id="path895-83"
       sodipodi:type="arc"
       sodipodi:cx="157.48848"
       sodipodi:cy="-130.80424"
       sodipodi:rx="2.8393357"
       sodipodi:ry="2.7446909"
       sodipodi:start="3.1286074"
       sodipodi:end="3.1120966"
       sodipodi:open="true"
       d="m 154.64938,-130.76861 a 2.8393357,2.7446909 0 0 1 2.79051,-2.77992 2.8393357,2.7446909 0 0 1 2.88728,2.68599 2.8393357,2.7446909 0 0 1 -2.76667,2.8021 2.8393357,2.7446909 0 0 1 -2.91012,-2.66286"
       transform="scale(1,-1)" />
    <g
       aria-label="SinceMyLast"
       transform="scale(1.0208138,0.9796106)"
       style="font-style:normal;font-variant:normal;font-weight:normal;font-stretch:normal;font-size:29.13793373px;line-height:1.25;font-family:sans-serif;-inkscape-font-specification:'sans-serif, Normal';font-variant-ligatures:normal;font-variant-caps:normal;font-variant-numeric:normal;font-feature-settings:normal;text-align:start;letter-spacing:0px;word-spacing:0px;writing-mode:lr-tb;text-anchor:start;fill:#142c41;fill-opacity:1;stroke:#000000;stroke-width:0.72845334;stroke-opacity:1"
       id="text1031" />
    <path
       style="opacity:1;fill:#ea4e50;fill-opacity:1;fill-rule:evenodd;stroke:none;stroke-width:0.61614639;stroke-linecap:round;stroke-linejoin:round;stroke-miterlimit:4;stroke-dasharray:none;stroke-dashoffset:0;stroke-opacity:1"
       id="path895-839"
       sodipodi:type="arc"
       sodipodi:cx="166.67706"
       sodipodi:cy="165.28032"
       sodipodi:rx="2.8393357"
       sodipodi:ry="2.7446909"
       sodipodi:start="3.1286074"
       sodipodi:end="3.1120966"
       sodipodi:open="true"
       d="m 163.83797,165.31596 a 2.8393357,2.7446909 0 0 1 2.79051,-2.77993 2.8393357,2.7446909 0 0 1 2.88728,2.68599 2.8393357,2.7446909 0 0 1 -2.76668,2.80211 2.8393357,2.7446909 0 0 1 -2.91012,-2.66286" />
    <path
       style="opacity:1;fill:#ea4e50;fill-opacity:1;fill-rule:evenodd;stroke:none;stroke-width:0.61614639;stroke-linecap:round;stroke-linejoin:round;stroke-miterlimit:4;stroke-dasharray:none;stroke-dashoffset:0;stroke-opacity:1"
       id="path895-5-0"
       sodipodi:type="arc"
       sodipodi:cx="157.59796"
       sodipodi:cy="156.88803"
       sodipodi:rx="2.8393359"
       sodipodi:ry="2.7446909"
       sodipodi:start="3.1286074"
       sodipodi:end="3.1120966"
       sodipodi:open="true"
       d="m 154.75886,156.92367 a 2.8393359,2.7446909 0 0 1 2.79051,-2.77993 2.8393359,2.7446909 0 0 1 2.88729,2.686 2.8393359,2.7446909 0 0 1 -2.76668,2.8021 2.8393359,2.7446909 0 0 1 -2.91012,-2.66286" />
  </g>
</svg>
