<?xml version="1.0" encoding="UTF-8" standalone="no"?>
<!-- Created with Inkscape (http://www.inkscape.org/) -->

<svg
   xmlns:dc="http://purl.org/dc/elements/1.1/"
   xmlns:cc="http://creativecommons.org/ns#"
   xmlns:rdf="http://www.w3.org/1999/02/22-rdf-syntax-ns#"
   xmlns:svg="http://www.w3.org/2000/svg"
   xmlns="http://www.w3.org/2000/svg"
   xmlns:sodipodi="http://sodipodi.sourceforge.net/DTD/sodipodi-0.dtd"
   xmlns:inkscape="http://www.inkscape.org/namespaces/inkscape"
   width="222.01039mm"
   height="67.135544mm"
   viewBox="0 0 222.01039 67.135544"
   version="1.1"
   id="svg8"
   inkscape:version="0.92.2 (5c3e80d, 2017-08-06)"
   sodipodi:docname="logo.svg"
   inkscape:export-filename="/Users/grahamcrate/bitmap.png"
   inkscape:export-xdpi="34.32272"
   inkscape:export-ydpi="34.32272">
  <defs
     id="defs2" />
  <sodipodi:namedview
     id="base"
     pagecolor="#ffffff"
     bordercolor="#666666"
     borderopacity="1.0"
     inkscape:pageopacity="0.0"
     inkscape:pageshadow="2"
     inkscape:zoom="1.3977742"
     inkscape:cx="230.6042"
     inkscape:cy="78.899746"
     inkscape:document-units="mm"
     inkscape:current-layer="text1031"
     showgrid="false"
     inkscape:window-width="1438"
     inkscape:window-height="811"
     inkscape:window-x="0"
     inkscape:window-y="23"
     inkscape:window-maximized="0"
     fit-margin-top="0"
     fit-margin-left="0"
     fit-margin-right="0"
     fit-margin-bottom="0" />
  <metadata
     id="metadata5">
    <rdf:RDF>
      <cc:Work
         rdf:about="">
        <dc:format>image/svg+xml</dc:format>
        <dc:type
           rdf:resource="http://purl.org/dc/dcmitype/StillImage" />
        <dc:title></dc:title>
      </cc:Work>
    </rdf:RDF>
  </metadata>
  <g
     inkscape:label="Layer 1"
     inkscape:groupmode="layer"
     id="layer1"
     transform="translate(14.731613,-115.26512)">
    <path
       style="opacity:1;fill:#ea4e50;fill-opacity:1;fill-rule:evenodd;stroke:none;stroke-width:0.708974;stroke-linecap:round;stroke-linejoin:round;stroke-miterlimit:4;stroke-dasharray:none;stroke-dashoffset:0;stroke-opacity:1"
       id="path832"
       sodipodi:type="arc"
       sodipodi:cx="154.69443"
       sodipodi:cy="-143.60471"
       sodipodi:rx="4.570065"
       sodipodi:ry="4.0127716"
       sodipodi:start="3.1286074"
       sodipodi:end="3.112096"
       d="m 150.12475,-143.5526 a 4.570065,4.0127716 0 0 1 4.49147,-4.06429 4.570065,4.0127716 0 0 1 4.64724,3.92696 4.570065,4.0127716 0 0 1 -4.45311,4.0967 4.570065,4.0127716 0 0 1 -4.684,-3.89313"
       sodipodi:open="true"
       transform="scale(1,-1)" />
    <path
       style="opacity:1;fill:#ea4e50;fill-opacity:1;fill-rule:evenodd;stroke:none;stroke-width:0.708974;stroke-linecap:round;stroke-linejoin:round;stroke-miterlimit:4;stroke-dasharray:none;stroke-dashoffset:0;stroke-opacity:1"
       id="path832-8"
       sodipodi:type="arc"
       sodipodi:cx="202.70871"
       sodipodi:cy="-143.35771"
       sodipodi:rx="4.570065"
       sodipodi:ry="4.0127716"
       sodipodi:start="3.1286074"
       sodipodi:end="3.112096"
       d="m 198.13903,-143.30561 a 4.570065,4.0127716 0 0 1 4.49148,-4.06429 4.570065,4.0127716 0 0 1 4.64723,3.92696 4.570065,4.0127716 0 0 1 -4.45311,4.09671 4.570065,4.0127716 0 0 1 -4.684,-3.89314"
       sodipodi:open="true"
       transform="scale(1,-1)" />
    <path
       style="opacity:1;fill:#ea4e50;fill-opacity:1;fill-rule:evenodd;stroke:none;stroke-width:0.708974;stroke-linecap:round;stroke-linejoin:round;stroke-miterlimit:4;stroke-dasharray:none;stroke-dashoffset:0;stroke-opacity:1"
       id="path832-7"
       sodipodi:type="arc"
       sodipodi:cx="-162.29051"
       sodipodi:cy="-183.14902"
       sodipodi:rx="4.570065"
       sodipodi:ry="4.0127716"
       sodipodi:start="3.1286074"
       sodipodi:end="3.112096"
       d="m -166.86019,-183.09691 a 4.570065,4.0127716 0 0 1 4.49147,-4.06429 4.570065,4.0127716 0 0 1 4.64724,3.92695 4.570065,4.0127716 0 0 1 -4.45311,4.09671 4.570065,4.0127716 0 0 1 -4.684,-3.89313"
       sodipodi:open="true"
       transform="matrix(0.03068452,-0.99952912,-0.99952912,-0.03068452,0,0)" />
    <path
       style="opacity:1;fill:#ea4e50;fill-opacity:1;fill-rule:evenodd;stroke:none;stroke-width:0.708974;stroke-linecap:round;stroke-linejoin:round;stroke-miterlimit:4;stroke-dasharray:none;stroke-dashoffset:0;stroke-opacity:1"
       id="path832-8-9"
       sodipodi:type="arc"
       sodipodi:cx="-114.27624"
       sodipodi:cy="-182.90202"
       sodipodi:rx="4.570065"
       sodipodi:ry="4.0127716"
       sodipodi:start="3.1286074"
       sodipodi:end="3.112096"
       d="m -118.84592,-182.84992 a 4.570065,4.0127716 0 0 1 4.49148,-4.06429 4.570065,4.0127716 0 0 1 4.64724,3.92696 4.570065,4.0127716 0 0 1 -4.45311,4.09671 4.570065,4.0127716 0 0 1 -4.684,-3.89314"
       sodipodi:open="true"
       transform="matrix(0.03068452,-0.99952912,-0.99952912,-0.03068452,0,0)" />
    <rect
       style="opacity:1;fill:#ea4e50;fill-opacity:1;fill-rule:evenodd;stroke:none;stroke-width:1.58059061;stroke-linecap:round;stroke-linejoin:round;stroke-miterlimit:4;stroke-dasharray:none;stroke-dashoffset:0;stroke-opacity:1"
       id="rect876"
       width="5.2005229"
       height="11.872486"
       x="176.40514"
       y="-137.93437"
       transform="scale(1,-1)" />
    <rect
       style="opacity:1;fill:#ea4e50;fill-opacity:1;fill-rule:evenodd;stroke:none;stroke-width:1.58208442;stroke-linecap:round;stroke-linejoin:round;stroke-miterlimit:4;stroke-dasharray:none;stroke-dashoffset:0;stroke-opacity:1"
       id="rect876-8"
       width="5.2088861"
       height="11.875842"
       x="-145.87193"
       y="-196.67171"
       transform="matrix(0.00245968,-0.99999697,-0.99999736,-0.00229669,0,0)" />
    <path
       style="opacity:1;fill:#ea4e50;fill-opacity:1;fill-rule:evenodd;stroke:none;stroke-width:0.73956591;stroke-linecap:round;stroke-linejoin:round;stroke-miterlimit:4;stroke-dasharray:none;stroke-dashoffset:0;stroke-opacity:1"
       id="path893"
       sodipodi:type="arc"
       sodipodi:cx="178.8434"
       sodipodi:cy="143.31049"
       sodipodi:rx="3.9562252"
       sodipodi:ry="3.8323202"
       sodipodi:start="3.1286074"
       sodipodi:end="3.1120966"
       sodipodi:open="true"
       d="m 174.88751,143.36025 a 3.9562252,3.8323202 0 0 1 3.88819,-3.88152 3.9562252,3.8323202 0 0 1 4.02303,3.75036 3.9562252,3.8323202 0 0 1 -3.85498,3.91248 3.9562252,3.8323202 0 0 1 -4.05486,-3.71806" />
    <path
       style="opacity:1;fill:#ea4e50;fill-opacity:1;fill-rule:evenodd;stroke:none;stroke-width:0.61614639;stroke-linecap:round;stroke-linejoin:round;stroke-miterlimit:4;stroke-dasharray:none;stroke-dashoffset:0;stroke-opacity:1"
       id="path895"
       sodipodi:type="arc"
       sodipodi:cx="200.55173"
       sodipodi:cy="-156.54753"
       sodipodi:rx="2.8393354"
       sodipodi:ry="2.7446909"
       sodipodi:start="3.1286074"
       sodipodi:end="3.1120966"
       sodipodi:open="true"
       d="m 197.71263,-156.51189 a 2.8393354,2.7446909 0 0 1 2.79051,-2.77993 2.8393354,2.7446909 0 0 1 2.88728,2.68599 2.8393354,2.7446909 0 0 1 -2.76667,2.80211 2.8393354,2.7446909 0 0 1 -2.91012,-2.66287"
       transform="scale(1,-1)" />
    <path
       style="opacity:1;fill:#ea4e50;fill-opacity:1;fill-rule:evenodd;stroke:none;stroke-width:0.61614639;stroke-linecap:round;stroke-linejoin:round;stroke-miterlimit:4;stroke-dasharray:none;stroke-dashoffset:0;stroke-opacity:1"
       id="path895-5"
       sodipodi:type="arc"
       sodipodi:cx="191.47263"
       sodipodi:cy="-164.93982"
       sodipodi:rx="2.8393357"
       sodipodi:ry="2.7446909"
       sodipodi:start="3.1286074"
       sodipodi:end="3.1120966"
       sodipodi:open="true"
       d="m 188.63353,-164.90418 a 2.8393357,2.7446909 0 0 1 2.79051,-2.77993 2.8393357,2.7446909 0 0 1 2.88728,2.686 2.8393357,2.7446909 0 0 1 -2.76667,2.8021 2.8393357,2.7446909 0 0 1 -2.91012,-2.66286"
       transform="scale(1,-1)" />
    <path
       style="opacity:1;fill:#ea4e50;fill-opacity:1;fill-rule:evenodd;stroke:none;stroke-width:0.61614639;stroke-linecap:round;stroke-linejoin:round;stroke-miterlimit:4;stroke-dasharray:none;stroke-dashoffset:0;stroke-opacity:1"
       id="path895-54"
       sodipodi:type="arc"
       sodipodi:cx="200.93031"
       sodipodi:cy="-130.99352"
       sodipodi:rx="2.8393357"
       sodipodi:ry="2.7446909"
       sodipodi:start="3.1286074"
       sodipodi:end="3.1120966"
       sodipodi:open="true"
       d="m 198.09122,-130.95788 a 2.8393357,2.7446909 0 0 1 2.79051,-2.77992 2.8393357,2.7446909 0 0 1 2.88728,2.68599 2.8393357,2.7446909 0 0 1 -2.76668,2.8021 2.8393357,2.7446909 0 0 1 -2.91012,-2.66286"
       transform="scale(1,-1)" />
    <path
       style="opacity:1;fill:#ea4e50;fill-opacity:1;fill-rule:evenodd;stroke:none;stroke-width:0.61614639;stroke-linecap:round;stroke-linejoin:round;stroke-miterlimit:4;stroke-dasharray:none;stroke-dashoffset:0;stroke-opacity:1"
       id="path895-1"
       sodipodi:type="arc"
       sodipodi:cx="191.74979"
       sodipodi:cy="-122.00229"
       sodipodi:rx="2.8393357"
       sodipodi:ry="2.7446909"
       sodipodi:start="3.1286074"
       sodipodi:end="3.1120966"
       sodipodi:open="true"
       d="m 188.91069,-121.96665 a 2.8393357,2.7446909 0 0 1 2.79051,-2.77993 2.8393357,2.7446909 0 0 1 2.88728,2.686 2.8393357,2.7446909 0 0 1 -2.76667,2.8021 2.8393357,2.7446909 0 0 1 -2.91012,-2.66286"
       transform="scale(1,-1)" />
    <path
       style="opacity:1;fill:#ea4e50;fill-opacity:1;fill-rule:evenodd;stroke:none;stroke-width:0.61614639;stroke-linecap:round;stroke-linejoin:round;stroke-miterlimit:4;stroke-dasharray:none;stroke-dashoffset:0;stroke-opacity:1"
       id="path895-8"
       sodipodi:type="arc"
       sodipodi:cx="166.57434"
       sodipodi:cy="-121.62372"
       sodipodi:rx="2.8393357"
       sodipodi:ry="2.7446909"
       sodipodi:start="3.1286074"
       sodipodi:end="3.1120966"
       sodipodi:open="true"
       d="m 163.73524,-121.58808 a 2.8393357,2.7446909 0 0 1 2.79051,-2.77993 2.8393357,2.7446909 0 0 1 2.88729,2.686 2.8393357,2.7446909 0 0 1 -2.76668,2.8021 2.8393357,2.7446909 0 0 1 -2.91012,-2.66286"
       transform="scale(1,-1)" />
    <path
       style="opacity:1;fill:#ea4e50;fill-opacity:1;fill-rule:evenodd;stroke:none;stroke-width:0.61614639;stroke-linecap:round;stroke-linejoin:round;stroke-miterlimit:4;stroke-dasharray:none;stroke-dashoffset:0;stroke-opacity:1"
       id="path895-83"
       sodipodi:type="arc"
       sodipodi:cx="157.48848"
       sodipodi:cy="-130.80424"
       sodipodi:rx="2.8393357"
       sodipodi:ry="2.7446909"
       sodipodi:start="3.1286074"
       sodipodi:end="3.1120966"
       sodipodi:open="true"
       d="m 154.64938,-130.76861 a 2.8393357,2.7446909 0 0 1 2.79051,-2.77992 2.8393357,2.7446909 0 0 1 2.88728,2.68599 2.8393357,2.7446909 0 0 1 -2.76667,2.8021 2.8393357,2.7446909 0 0 1 -2.91012,-2.66286"
       transform="scale(1,-1)" />
    <path
       style="opacity:1;fill:#ea4e50;fill-opacity:1;fill-rule:evenodd;stroke:none;stroke-width:0.55356693;stroke-linecap:round;stroke-linejoin:round;stroke-miterlimit:4;stroke-dasharray:none;stroke-dashoffset:0;stroke-opacity:1"
       id="path895-52"
       sodipodi:type="arc"
       sodipodi:cx="154.22324"
       sodipodi:cy="-179.89258"
       sodipodi:rx="2.5080798"
       sodipodi:ry="2.5080795"
       sodipodi:start="3.1286074"
       sodipodi:end="3.1120966"
       sodipodi:open="true"
       d="m 151.71537,-179.86001 a 2.5080798,2.5080795 0 0 1 2.46495,-2.54028 2.5080798,2.5080795 0 0 1 2.55043,2.45444 2.5080798,2.5080795 0 0 1 -2.44389,2.56054 2.5080798,2.5080795 0 0 1 -2.57061,-2.4333"
       transform="scale(1,-1)" />
    <path
       style="opacity:1;fill:#ea4e50;fill-opacity:1;fill-rule:evenodd;stroke:none;stroke-width:0.55356693;stroke-linecap:round;stroke-linejoin:round;stroke-miterlimit:4;stroke-dasharray:none;stroke-dashoffset:0;stroke-opacity:1"
       id="path895-52-2"
       sodipodi:type="arc"
       sodipodi:cx="142.33932"
       sodipodi:cy="-179.89258"
       sodipodi:rx="2.5080798"
       sodipodi:ry="2.5080795"
       sodipodi:start="3.1286074"
       sodipodi:end="3.1120966"
       sodipodi:open="true"
       d="m 139.83146,-179.86001 a 2.5080798,2.5080795 0 0 1 2.46495,-2.54028 2.5080798,2.5080795 0 0 1 2.55043,2.45444 2.5080798,2.5080795 0 0 1 -2.4439,2.56054 2.5080798,2.5080795 0 0 1 -2.5706,-2.4333"
       transform="scale(1,-1)" />
    <path
       style="opacity:1;fill:#ea4e50;fill-opacity:1;fill-rule:evenodd;stroke:none;stroke-width:0.55356693;stroke-linecap:round;stroke-linejoin:round;stroke-miterlimit:4;stroke-dasharray:none;stroke-dashoffset:0;stroke-opacity:1"
       id="path895-52-6"
       sodipodi:type="arc"
       sodipodi:cx="130.45541"
       sodipodi:cy="-179.89258"
       sodipodi:rx="2.5080798"
       sodipodi:ry="2.5080795"
       sodipodi:start="3.1286074"
       sodipodi:end="3.1120966"
       sodipodi:open="true"
       d="m 127.94755,-179.86001 a 2.5080798,2.5080795 0 0 1 2.46495,-2.54028 2.5080798,2.5080795 0 0 1 2.55043,2.45444 2.5080798,2.5080795 0 0 1 -2.4439,2.56054 2.5080798,2.5080795 0 0 1 -2.5706,-2.4333"
       transform="scale(1,-1)" />
    <path
       style="opacity:1;fill:#ea4e50;fill-opacity:1;fill-rule:evenodd;stroke:none;stroke-width:0.55356693;stroke-linecap:round;stroke-linejoin:round;stroke-miterlimit:4;stroke-dasharray:none;stroke-dashoffset:0;stroke-opacity:1"
       id="path895-52-67"
       sodipodi:type="arc"
       sodipodi:cx="118.57148"
       sodipodi:cy="-179.89258"
       sodipodi:rx="2.5080798"
       sodipodi:ry="2.5080795"
       sodipodi:start="3.1286074"
       sodipodi:end="3.1120966"
       sodipodi:open="true"
       d="m 116.06361,-179.86001 a 2.5080798,2.5080795 0 0 1 2.46495,-2.54028 2.5080798,2.5080795 0 0 1 2.55043,2.45444 2.5080798,2.5080795 0 0 1 -2.44389,2.56054 2.5080798,2.5080795 0 0 1 -2.57061,-2.4333"
       transform="scale(1,-1)" />
    <path
       style="opacity:1;fill:#ea4e50;fill-opacity:1;fill-rule:evenodd;stroke:none;stroke-width:0.55356693;stroke-linecap:round;stroke-linejoin:round;stroke-miterlimit:4;stroke-dasharray:none;stroke-dashoffset:0;stroke-opacity:1"
       id="path895-52-8"
       sodipodi:type="arc"
       sodipodi:cx="106.68757"
       sodipodi:cy="-179.89258"
       sodipodi:rx="2.5080798"
       sodipodi:ry="2.5080795"
       sodipodi:start="3.1286074"
       sodipodi:end="3.1120966"
       sodipodi:open="true"
       d="m 104.1797,-179.86001 a 2.5080798,2.5080795 0 0 1 2.46495,-2.54028 2.5080798,2.5080795 0 0 1 2.55043,2.45444 2.5080798,2.5080795 0 0 1 -2.44389,2.56054 2.5080798,2.5080795 0 0 1 -2.57061,-2.4333"
       transform="scale(1,-1)" />
    <path
       style="opacity:1;fill:#ea4e50;fill-opacity:1;fill-rule:evenodd;stroke:none;stroke-width:0.55356693;stroke-linecap:round;stroke-linejoin:round;stroke-miterlimit:4;stroke-dasharray:none;stroke-dashoffset:0;stroke-opacity:1"
       id="path895-52-4"
       sodipodi:type="arc"
       sodipodi:cx="94.80365"
       sodipodi:cy="-179.89258"
       sodipodi:rx="2.5080798"
       sodipodi:ry="2.5080795"
       sodipodi:start="3.1286074"
       sodipodi:end="3.1120966"
       sodipodi:open="true"
       d="m 92.295782,-179.86001 a 2.5080798,2.5080795 0 0 1 2.464949,-2.54028 2.5080798,2.5080795 0 0 1 2.550433,2.45444 2.5080798,2.5080795 0 0 1 -2.443895,2.56054 2.5080798,2.5080795 0 0 1 -2.570608,-2.4333"
       transform="scale(1,-1)" />
    <path
       style="opacity:1;fill:#ea4e50;fill-opacity:1;fill-rule:evenodd;stroke:none;stroke-width:0.55356693;stroke-linecap:round;stroke-linejoin:round;stroke-miterlimit:4;stroke-dasharray:none;stroke-dashoffset:0;stroke-opacity:1"
       id="path895-52-1"
       sodipodi:type="arc"
       sodipodi:cx="82.919739"
       sodipodi:cy="-179.89258"
       sodipodi:rx="2.5080798"
       sodipodi:ry="2.5080795"
       sodipodi:start="3.1286074"
       sodipodi:end="3.1120966"
       sodipodi:open="true"
       d="m 80.41187,-179.86001 a 2.5080798,2.5080795 0 0 1 2.46495,-2.54028 2.5080798,2.5080795 0 0 1 2.550433,2.45444 2.5080798,2.5080795 0 0 1 -2.443895,2.56054 2.5080798,2.5080795 0 0 1 -2.570608,-2.4333"
       transform="scale(1,-1)" />
    <path
       style="opacity:1;fill:#ea4e50;fill-opacity:1;fill-rule:evenodd;stroke:none;stroke-width:0.55356693;stroke-linecap:round;stroke-linejoin:round;stroke-miterlimit:4;stroke-dasharray:none;stroke-dashoffset:0;stroke-opacity:1"
       id="path895-52-18"
       sodipodi:type="arc"
       sodipodi:cx="71.03582"
       sodipodi:cy="-179.89258"
       sodipodi:rx="2.5080798"
       sodipodi:ry="2.5080795"
       sodipodi:start="3.1286074"
       sodipodi:end="3.1120966"
       sodipodi:open="true"
       d="m 68.527952,-179.86001 a 2.5080798,2.5080795 0 0 1 2.464949,-2.54028 2.5080798,2.5080795 0 0 1 2.550433,2.45444 2.5080798,2.5080795 0 0 1 -2.443895,2.56054 2.5080798,2.5080795 0 0 1 -2.570608,-2.4333"
       transform="scale(1,-1)" />
    <path
       style="opacity:1;fill:#ea4e50;fill-opacity:1;fill-rule:evenodd;stroke:none;stroke-width:0.55356693;stroke-linecap:round;stroke-linejoin:round;stroke-miterlimit:4;stroke-dasharray:none;stroke-dashoffset:0;stroke-opacity:1"
       id="path895-52-7"
       sodipodi:type="arc"
       sodipodi:cx="59.151894"
       sodipodi:cy="-179.89258"
       sodipodi:rx="2.5080798"
       sodipodi:ry="2.5080795"
       sodipodi:start="3.1286074"
       sodipodi:end="3.1120966"
       sodipodi:open="true"
       d="m 56.644025,-179.86001 a 2.5080798,2.5080795 0 0 1 2.46495,-2.54028 2.5080798,2.5080795 0 0 1 2.550433,2.45444 2.5080798,2.5080795 0 0 1 -2.443895,2.56054 2.5080798,2.5080795 0 0 1 -2.570608,-2.4333"
       transform="scale(1,-1)" />
    <path
       style="opacity:1;fill:#ea4e50;fill-opacity:1;fill-rule:evenodd;stroke:none;stroke-width:0.55356693;stroke-linecap:round;stroke-linejoin:round;stroke-miterlimit:4;stroke-dasharray:none;stroke-dashoffset:0;stroke-opacity:1"
       id="path895-52-87"
       sodipodi:type="arc"
       sodipodi:cx="47.267975"
       sodipodi:cy="-179.89258"
       sodipodi:rx="2.5080798"
       sodipodi:ry="2.5080795"
       sodipodi:start="3.1286074"
       sodipodi:end="3.1120966"
       sodipodi:open="true"
       d="m 44.760107,-179.86001 a 2.5080798,2.5080795 0 0 1 2.464949,-2.54028 2.5080798,2.5080795 0 0 1 2.550433,2.45444 2.5080798,2.5080795 0 0 1 -2.443895,2.56054 2.5080798,2.5080795 0 0 1 -2.570608,-2.4333"
       transform="scale(1,-1)" />
    <path
       style="opacity:1;fill:#ea4e50;fill-opacity:1;fill-rule:evenodd;stroke:none;stroke-width:0.55356693;stroke-linecap:round;stroke-linejoin:round;stroke-miterlimit:4;stroke-dasharray:none;stroke-dashoffset:0;stroke-opacity:1"
       id="path895-52-74"
       sodipodi:type="arc"
       sodipodi:cx="35.38406"
       sodipodi:cy="-179.89258"
       sodipodi:rx="2.5080798"
       sodipodi:ry="2.5080795"
       sodipodi:start="3.1286074"
       sodipodi:end="3.1120966"
       sodipodi:open="true"
       d="m 32.876192,-179.86001 a 2.5080798,2.5080795 0 0 1 2.464949,-2.54028 2.5080798,2.5080795 0 0 1 2.550433,2.45444 2.5080798,2.5080795 0 0 1 -2.443895,2.56054 2.5080798,2.5080795 0 0 1 -2.570608,-2.4333"
       transform="scale(1,-1)" />
    <path
       style="opacity:1;fill:#ea4e50;fill-opacity:1;fill-rule:evenodd;stroke:none;stroke-width:0.55356693;stroke-linecap:round;stroke-linejoin:round;stroke-miterlimit:4;stroke-dasharray:none;stroke-dashoffset:0;stroke-opacity:1"
       id="path895-52-49"
       sodipodi:type="arc"
       sodipodi:cx="23.500141"
       sodipodi:cy="-179.89258"
       sodipodi:rx="2.5080798"
       sodipodi:ry="2.5080795"
       sodipodi:start="3.1286074"
       sodipodi:end="3.1120966"
       sodipodi:open="true"
       d="m 20.992273,-179.86001 a 2.5080798,2.5080795 0 0 1 2.46495,-2.54028 2.5080798,2.5080795 0 0 1 2.550432,2.45444 2.5080798,2.5080795 0 0 1 -2.443895,2.56054 2.5080798,2.5080795 0 0 1 -2.570608,-2.4333"
       transform="scale(1,-1)" />
    <path
       style="opacity:1;fill:#ea4e50;fill-opacity:1;fill-rule:evenodd;stroke:none;stroke-width:0.55356693;stroke-linecap:round;stroke-linejoin:round;stroke-miterlimit:4;stroke-dasharray:none;stroke-dashoffset:0;stroke-opacity:1"
       id="path895-52-15"
       sodipodi:type="arc"
       sodipodi:cx="11.616223"
       sodipodi:cy="-179.89258"
       sodipodi:rx="2.5080798"
       sodipodi:ry="2.5080795"
       sodipodi:start="3.1286074"
       sodipodi:end="3.1120966"
       sodipodi:open="true"
       d="m 9.108355,-179.86001 a 2.5080798,2.5080795 0 0 1 2.46495,-2.54028 2.5080798,2.5080795 0 0 1 2.550432,2.45444 2.5080798,2.5080795 0 0 1 -2.443895,2.56054 2.5080798,2.5080795 0 0 1 -2.5706075,-2.4333"
       transform="scale(1,-1)" />
    <path
       style="opacity:1;fill:#ea4e50;fill-opacity:1;fill-rule:evenodd;stroke:none;stroke-width:0.55356693;stroke-linecap:round;stroke-linejoin:round;stroke-miterlimit:4;stroke-dasharray:none;stroke-dashoffset:0;stroke-opacity:1"
       id="path895-52-5"
       sodipodi:type="arc"
       sodipodi:cx="-0.2676948"
       sodipodi:cy="-179.89258"
       sodipodi:rx="2.5080798"
       sodipodi:ry="2.5080795"
       sodipodi:start="3.1286074"
       sodipodi:end="3.1120966"
       sodipodi:open="true"
       d="m -2.7755631,-179.86001 a 2.5080798,2.5080795 0 0 1 2.46494974,-2.54028 2.5080798,2.5080795 0 0 1 2.55043256,2.45444 2.5080798,2.5080795 0 0 1 -2.44389497,2.56054 2.5080798,2.5080795 0 0 1 -2.57060783,-2.4333"
       transform="scale(1,-1)" />
    <g
       aria-label="SinceMyLast"
       transform="scale(1.0208138,0.9796106)"
       style="font-style:normal;font-variant:normal;font-weight:normal;font-stretch:normal;font-size:29.13793373px;line-height:1.25;font-family:sans-serif;-inkscape-font-specification:'sans-serif, Normal';font-variant-ligatures:normal;font-variant-caps:normal;font-variant-numeric:normal;font-feature-settings:normal;text-align:start;letter-spacing:0px;word-spacing:0px;writing-mode:lr-tb;text-anchor:start;fill:#142c41;fill-opacity:1;stroke:#000000;stroke-width:0.72845334;stroke-opacity:1"
       id="text1031">
      <path
         d="m 2.2661605,168.83695 q 0,1.23779 -0.5833278,2.44713 -0.5691003,1.20934 -1.60770825,2.04876 -1.13820055,0.91056 -2.66054375,1.42275 -1.5081157,0.51219 -3.6422417,0.51219 -2.2906286,0 -4.125977,-0.42683 -1.821121,-0.42682 -3.713379,-1.26624 v -3.52843 h 0.199185 q 1.607708,1.33739 3.713379,2.06299 2.1056711,0.72561 3.955247,0.72561 2.6178612,0 4.0690669,-0.9817 1.4654332,-0.9817 1.4654332,-2.61786 0,-1.40853 -0.6971478,-2.07722 -0.6829203,-0.66869 -2.0914435,-1.03861 -1.067063,-0.28455 -2.3190836,-0.46951 -1.2377931,-0.18495 -2.6320887,-0.4695 -2.8170465,-0.59756 -4.1828875,-2.03454 -1.351613,-1.4512 -1.351613,-3.77029 0,-2.66054 2.247946,-4.35361 2.2479465,-1.7073 5.7052306,-1.7073 2.2337185,0 4.0975219,0.42682 1.8638034,0.42683 3.3007816,1.05284 v 3.32923 H 1.213325 q -1.20933808,-1.02438 -3.1869615,-1.69307 -1.9633959,-0.68292 -4.0263844,-0.68292 -2.2621736,0 -3.6422417,0.93902 -1.3658404,0.93901 -1.3658404,2.41867 0,1.32316 0.68292,2.07722 0.6829204,0.75406 2.4044487,1.15243 0.9105604,0.19918 2.5894062,0.48373 1.6788458,0.28455 2.8455013,0.58333 2.36176616,0.62601 3.5568767,1.89226 1.1951106,1.26625 1.1951106,3.54265 z"
         style="font-style:normal;font-variant:normal;font-weight:normal;font-stretch:normal;font-size:29.13793373px;font-family:sans-serif;-inkscape-font-specification:'sans-serif, Normal';font-variant-ligatures:normal;font-variant-caps:normal;font-variant-numeric:normal;font-feature-settings:normal;text-align:start;writing-mode:lr-tb;text-anchor:start;fill:#142c41;fill-opacity:1;stroke:#000000;stroke-width:0.72845334;stroke-opacity:1"
         id="path849"
         inkscape:connector-curvature="0" />
      <path
         d="M 9.4510505,156.33097 H 6.4348191 V 153.5566 H 9.4510505 Z M 9.2803204,174.88364 H 6.6055492 v -15.89213 h 2.6747712 z"
         style="font-style:normal;font-variant:normal;font-weight:normal;font-stretch:normal;font-size:29.13793373px;font-family:sans-serif;-inkscape-font-specification:'sans-serif, Normal';font-variant-ligatures:normal;font-variant-caps:normal;font-variant-numeric:normal;font-feature-settings:normal;text-align:start;writing-mode:lr-tb;text-anchor:start;fill:#142c41;fill-opacity:1;stroke:#000000;stroke-width:0.72845334;stroke-opacity:1"
         id="path851"
         inkscape:connector-curvature="0" />
      <path
         d="m 27.889898,174.88364 h -2.674771 v -9.0487 q 0,-1.09552 -0.128047,-2.04876 -0.128048,-0.96747 -0.469508,-1.50811 -0.355688,-0.59756 -1.024381,-0.88211 -0.668692,-0.29878 -1.735755,-0.29878 -1.095518,0 -2.290629,0.54065 -1.195111,0.54064 -2.290629,1.38007 v 11.86574 h -2.674771 v -15.89213 h 2.674771 v 1.76421 q 1.252021,-1.03861 2.589407,-1.62193 1.337385,-0.58333 2.745908,-0.58333 2.575179,0 3.926792,1.5508 1.351613,1.5508 1.351613,4.46743 z"
         style="font-style:normal;font-variant:normal;font-weight:normal;font-stretch:normal;font-size:29.13793373px;font-family:sans-serif;-inkscape-font-specification:'sans-serif, Normal';font-variant-ligatures:normal;font-variant-caps:normal;font-variant-numeric:normal;font-feature-settings:normal;text-align:start;writing-mode:lr-tb;text-anchor:start;fill:#142c41;fill-opacity:1;stroke:#000000;stroke-width:0.72845334;stroke-opacity:1"
         id="path853"
         inkscape:connector-curvature="0" />
      <path
         d="m 44.792178,173.88771 q -1.337386,0.64024 -2.546724,0.99593 -1.19511,0.35568 -2.546723,0.35568 -1.721529,0 -3.158507,-0.49796 -1.436978,-0.51219 -2.461358,-1.53657 -1.038608,-1.02438 -1.607709,-2.58941 -0.5691,-1.56502 -0.5691,-3.65646 0,-3.89834 2.134126,-6.11783 2.148354,-2.21949 5.662548,-2.21949 1.36584,0 2.674771,0.38414 1.323158,0.38414 2.418676,0.93901 v 2.97355 h -0.142275 q -1.223566,-0.95324 -2.532496,-1.46543 -1.294703,-0.51219 -2.532496,-0.51219 -2.276401,0 -3.59956,1.53657 -1.30893,1.52234 -1.30893,4.48167 0,2.87395 1.280475,4.42475 1.294704,1.53657 3.628015,1.53657 0.810967,0 1.65039,-0.21341 0.839423,-0.21341 1.508116,-0.55487 0.583328,-0.29878 1.095518,-0.62602 0.51219,-0.34146 0.810968,-0.58332 h 0.142275 z"
         style="font-style:normal;font-variant:normal;font-weight:normal;font-stretch:normal;font-size:29.13793373px;font-family:sans-serif;-inkscape-font-specification:'sans-serif, Normal';font-variant-ligatures:normal;font-variant-caps:normal;font-variant-numeric:normal;font-feature-settings:normal;text-align:start;writing-mode:lr-tb;text-anchor:start;fill:#142c41;fill-opacity:1;stroke:#000000;stroke-width:0.72845334;stroke-opacity:1"
         id="path855"
         inkscape:connector-curvature="0" />
      <path
         d="M 61.537953,167.21501 H 49.828715 q 0,1.46543 0.441053,2.56095 0.441053,1.08129 1.209338,1.77844 0.73983,0.68292 1.749983,1.02438 1.024381,0.34146 2.247946,0.34146 1.621936,0 3.258099,-0.64024 1.650391,-0.65446 2.347539,-1.28047 h 0.142275 v 2.91664 q -1.351613,0.5691 -2.760136,0.95324 -1.408524,0.38414 -2.959322,0.38414 -3.955247,0 -6.174738,-2.13412 -2.219491,-2.14836 -2.219491,-6.08938 0,-3.89833 2.119899,-6.18896 2.134126,-2.29063 5.605637,-2.29063 3.215417,0 4.951173,1.87803 1.749983,1.87803 1.749983,5.33531 z m -2.603634,-2.04876 q -0.01423,-2.10567 -1.067063,-3.2581 -1.038608,-1.15243 -3.172734,-1.15243 -2.148353,0 -3.428829,1.26625 -1.266248,1.26625 -1.436978,3.14428 z"
         style="font-style:normal;font-variant:normal;font-weight:normal;font-stretch:normal;font-size:29.13793373px;font-family:sans-serif;-inkscape-font-specification:'sans-serif, Normal';font-variant-ligatures:normal;font-variant-caps:normal;font-variant-numeric:normal;font-feature-settings:normal;text-align:start;writing-mode:lr-tb;text-anchor:start;fill:#142c41;fill-opacity:1;stroke:#000000;stroke-width:0.72845334;stroke-opacity:1"
         id="path857"
         inkscape:connector-curvature="0" />
      <path
         d="M 84.671876,174.88364 H 81.85483 v -18.25389 l -5.890188,12.42061 h -1.678846 l -5.847505,-12.42061 v 18.25389 h -2.632089 v -21.18476 h 3.841427 l 5.64832,11.7946 5.463363,-11.7946 h 3.912564 z"
         style="font-style:normal;font-variant:normal;font-weight:normal;font-stretch:normal;font-size:29.13793373px;font-family:sans-serif;-inkscape-font-specification:'sans-serif, Normal';font-variant-ligatures:normal;font-variant-caps:normal;font-variant-numeric:normal;font-feature-settings:normal;text-align:start;writing-mode:lr-tb;text-anchor:start;fill:#142c41;fill-opacity:1;stroke:#000000;stroke-width:0.72845334;stroke-opacity:1"
         id="path859"
         inkscape:connector-curvature="0" />
      <path
         d="M 103.94312,159.51821 94.641143,179.1129 H 91.77351 l 2.9675,-5.97196 -6.348739,-13.62273 h 2.910433 l 4.893523,10.61112 4.936323,-10.61112 z"
         style="font-style:normal;font-variant:normal;font-weight:normal;font-stretch:normal;font-size:29.13793373px;font-family:sans-serif;-inkscape-font-specification:'sans-serif, Normal';font-variant-ligatures:normal;font-variant-caps:normal;font-variant-numeric:normal;font-feature-settings:normal;text-align:start;writing-mode:lr-tb;text-anchor:start;fill:#142c41;fill-opacity:1;stroke:#000000;stroke-width:0.69231254;stroke-opacity:1"
         id="path861"
         inkscape:connector-curvature="0" />
      <path
         d="m 121.03739,174.88364 h -13.40231 v -21.18476 h 2.81704 v 18.68072 h 10.58527 z"
         style="font-style:normal;font-variant:normal;font-weight:normal;font-stretch:normal;font-size:29.13793373px;font-family:sans-serif;-inkscape-font-specification:'sans-serif, Normal';font-variant-ligatures:normal;font-variant-caps:normal;font-variant-numeric:normal;font-feature-settings:normal;text-align:start;writing-mode:lr-tb;text-anchor:start;fill:#142c41;fill-opacity:1;stroke:#000000;stroke-width:0.72845334;stroke-opacity:1"
         id="path863"
         inkscape:connector-curvature="0" />
      <path
         d="m 135.9905,174.88364 h -2.66055 v -1.69308 q -0.35568,0.24187 -0.96747,0.68292 -0.59755,0.42683 -1.16665,0.68292 -0.66869,0.32724 -1.53657,0.54065 -0.86788,0.22764 -2.03454,0.22764 -2.14835,0 -3.64224,-1.42275 -1.49389,-1.42275 -1.49389,-3.62802 0,-1.80689 0.76829,-2.91663 0.78251,-1.12398 2.21949,-1.76422 1.45121,-0.64023 3.48574,-0.86787 2.03453,-0.22764 4.36784,-0.34146 v -0.4126 q 0,-0.91056 -0.32723,-1.50812 -0.313,-0.59755 -0.91056,-0.93901 -0.5691,-0.32723 -1.36584,-0.44106 -0.79674,-0.11382 -1.66462,-0.11382 -1.05283,0 -2.34754,0.28456 -1.2947,0.27032 -2.67477,0.79674 h -0.14227 v -2.71746 q 0.78251,-0.21341 2.26217,-0.46951 1.47966,-0.25609 2.91664,-0.25609 1.67885,0 2.91664,0.28455 1.25202,0.27032 2.16258,0.93901 0.89633,0.65447 1.36584,1.69308 0.46951,1.03861 0.46951,2.57518 z m -2.66055,-3.91257 v -4.42475 q -1.22356,0.0711 -2.88818,0.21341 -1.65039,0.14228 -2.61786,0.4126 -1.15243,0.32723 -1.8638,1.02438 -0.71138,0.68292 -0.71138,1.89226 0,1.36584 0.8252,2.06299 0.82519,0.68292 2.51827,0.68292 1.40852,0 2.57517,-0.54065 1.16666,-0.55487 2.16258,-1.32316 z"
         style="font-style:normal;font-variant:normal;font-weight:normal;font-stretch:normal;font-size:29.13793373px;font-family:sans-serif;-inkscape-font-specification:'sans-serif, Normal';font-variant-ligatures:normal;font-variant-caps:normal;font-variant-numeric:normal;font-feature-settings:normal;text-align:start;writing-mode:lr-tb;text-anchor:start;fill:#142c41;fill-opacity:1;stroke:#000000;stroke-width:0.72845334;stroke-opacity:1"
         id="path865"
         inkscape:connector-curvature="0" />
      <path
         d="m 152.52286,170.30238 q 0,2.17681 -1.80689,3.5711 -1.79267,1.3943 -4.90849,1.3943 -1.76421,0 -3.24387,-0.4126 -1.46543,-0.42682 -2.46136,-0.92479 v -3.002 h 0.14227 q 1.26625,0.95324 2.81705,1.52234 1.5508,0.55488 2.97355,0.55488 1.76421,0 2.76014,-0.5691 0.99592,-0.5691 0.99592,-1.79267 0,-0.93902 -0.54064,-1.42275 -0.54065,-0.48374 -2.07722,-0.8252 -0.5691,-0.12804 -1.49389,-0.29877 -0.91056,-0.17073 -1.66462,-0.36992 -2.09144,-0.55487 -2.97355,-1.62194 -0.86787,-1.08129 -0.86787,-2.64631 0,-0.9817 0.39837,-1.84958 0.41259,-0.86788 1.23779,-1.5508 0.79674,-0.66869 2.02031,-1.05283 1.23779,-0.39837 2.76013,-0.39837 1.42275,0 2.87396,0.35569 1.46543,0.34146 2.4329,0.83942 v 2.85973 h -0.14227 q -1.02438,-0.75406 -2.48982,-1.26625 -1.46543,-0.52642 -2.87395,-0.52642 -1.46544,0 -2.47559,0.5691 -1.01015,0.55488 -1.01015,1.66462 0,0.9817 0.61178,1.47966 0.59756,0.49796 1.93494,0.81097 0.73983,0.17073 1.65039,0.34146 0.92479,0.17073 1.53657,0.313 1.86381,0.42683 2.87396,1.46544 1.01015,1.05283 1.01015,2.78859 z"
         style="font-style:normal;font-variant:normal;font-weight:normal;font-stretch:normal;font-size:29.13793373px;font-family:sans-serif;-inkscape-font-specification:'sans-serif, Normal';font-variant-ligatures:normal;font-variant-caps:normal;font-variant-numeric:normal;font-feature-settings:normal;text-align:start;writing-mode:lr-tb;text-anchor:start;fill:#142c41;fill-opacity:1;stroke:#000000;stroke-width:0.72845334;stroke-opacity:1"
         id="path867"
         inkscape:connector-curvature="0" />
      <path
         d="m 164.61624,174.74136 q -0.75405,0.19919 -1.65039,0.32723 -0.8821,0.12805 -1.57925,0.12805 -2.4329,0 -3.69915,-1.30893 -1.26625,-1.30893 -1.26625,-4.19711 v -8.45114 h -1.80689 v -2.24795 h 1.80689 v -4.56703 h 2.67477 v 4.56703 h 5.52027 v 2.24795 h -5.52027 v 7.2418 q 0,1.25202 0.0569,1.96339 0.0569,0.69715 0.39837,1.30893 0.31301,0.56911 0.85365,0.83943 0.55487,0.25609 1.67885,0.25609 0.65446,0 1.36584,-0.18495 0.71137,-0.19919 1.02438,-0.32724 h 0.14227 z"
         style="font-style:normal;font-variant:normal;font-weight:normal;font-stretch:normal;font-size:29.13793373px;font-family:sans-serif;-inkscape-font-specification:'sans-serif, Normal';font-variant-ligatures:normal;font-variant-caps:normal;font-variant-numeric:normal;font-feature-settings:normal;text-align:start;writing-mode:lr-tb;text-anchor:start;fill:#142c41;fill-opacity:1;stroke:#000000;stroke-width:0.72845334;stroke-opacity:1"
         id="path869"
         inkscape:connector-curvature="0" />
    </g>
  </g>
</svg>
